<?xml version="1.0" encoding="utf-8"?>
<!-- Generator: Adobe Illustrator 16.0.3, SVG Export Plug-In . SVG Version: 6.00 Build 0)  -->
<!DOCTYPE svg PUBLIC "-//W3C//DTD SVG 1.1//EN" "http://www.w3.org/Graphics/SVG/1.1/DTD/svg11.dtd">
<svg version="1.1" id="Vrstva_1" xmlns="http://www.w3.org/2000/svg" xmlns:xlink="http://www.w3.org/1999/xlink" x="0px" y="0px"
	 width="289.134px" height="66.727px" viewBox="-2.835 -2.834 289.134 66.727"
	 enable-background="new -2.835 -2.834 289.134 66.727" xml:space="preserve">
<path d="M43.92,17.338C42.654,6.341,33.856,0.21,23.393,0.21C8.665,0.21,0,11.207,0,25.336c0,13.729,8.665,24.725,23.393,24.725
	c11.663,0,19.861-7.597,20.927-19.459H34.19c-0.8,6.265-4.398,10.663-10.797,10.663c-9.397,0-12.929-7.997-12.929-15.928
	c0-8.332,3.532-16.329,12.929-16.329c5.198,0,9.731,3.599,10.397,8.331H43.92z M45.553,31.734c0,10.93,6.998,18.129,17.795,18.129
	c10.863,0,17.861-7.199,17.861-18.129c0-10.997-6.998-18.194-17.861-18.194C52.551,13.54,45.553,20.737,45.553,31.734
	 M55.017,31.734c0-5.532,1.933-11.064,8.331-11.064c6.465,0,8.398,5.532,8.398,11.064c0,5.466-1.933,10.997-8.398,10.997
	C56.95,42.73,55.017,37.2,55.017,31.734 M84.062,48.928h9.463V28.935c0-6.732,4.532-7.932,6.398-7.932
	c5.999,0,5.732,4.6,5.732,8.598v19.327h9.464V29.734c0-4.332,1-8.731,6.331-8.731c5.399,0,5.799,3.799,5.799,8.398v19.527h9.464
	v-23.06c0-8.929-5.265-12.328-12.597-12.328c-4.798,0-8.397,2.732-10.396,5.731c-1.867-4.132-5.732-5.731-10.064-5.731
	c-4.466,0-8.065,2.066-10.531,5.598h-0.133v-4.666h-8.93V48.928z M137.305,48.928h10.597l3.73-10.596h17.796l3.6,10.596h10.862
	L166.096,1.342h-10.729L137.305,48.928z M160.566,13.073h0.133l5.998,17.461h-12.33L160.566,13.073z M184.251,61.059h9.463V44.664
	h0.134c2.269,3.398,6.198,5.199,10.33,5.199c10.065,0,15.13-8.6,15.13-17.795c0-9.798-4.865-18.528-15.661-18.528
	c-4.267,0-7.998,1.665-10.267,5.331h-0.131v-4.399h-8.998V61.059z M201.646,42.73c-6.132,0-8.266-5.332-8.266-10.931
	c0-5.598,2-11.13,8.199-11.13c6.063,0,8.264,5.665,8.264,11.13C209.843,37.398,207.843,42.73,201.646,42.73"/>
<path fill="#F00000" d="M230.91,7.979c-0.662-2.906-1.207-2.845-1.205,0.136l-0.017,49.688c-0.003,2.98,1.786,3.76,3.974,1.732
	l24.541-22.764c2.184-2.028,1.853-2.484-0.744-1.016l-13.184,7.473c-2.595,1.467-5.259,0.293-5.921-2.612L230.91,7.979z"/>
<path fill="#F00000" d="M237.903,59.066c-2.187,2.027-1.858,2.468,0.722,0.979l43.039-24.833c2.58-1.489,2.361-3.428-0.485-4.306
	l-31.986-9.872c-2.848-0.879-3.075-0.362-0.507,1.149l13.063,7.684c2.567,1.512,2.885,4.406,0.695,6.434L237.903,59.066z"/>
<path fill="#F00000" d="M278.615,27.752c2.852,0.879,3.067,0.378,0.487-1.113L236.08,1.784c-2.58-1.49-4.151-0.334-3.488,2.573
	l7.445,32.637c0.662,2.906,1.226,2.845,1.252-0.137l0.119-15.155c0.023-2.98,2.375-4.7,5.223-3.82L278.615,27.752z"/>
</svg>
